# Alias OBJ Model File
# Exported from SketchUp, (c) 2000-2012 Trimble Navigation Limited
# File units = inches

mtllib House_1.mtl

g Mesh1 Model

usemtl FrontColor
v 84.7496 120 64.4592
vt 64.4592 120
vn -1 0 -0
v 84.7496 0 74.4592
vt 74.4592 0
v 84.7496 120 74.4592
vt 74.4592 120
f 1/1/1 2/2/1 3/3/1

v 84.7496 53.2145 40.5003
vt 40.5003 53.2145
f 2/2/1 1/1/1 4/4/1

v 84.7496 97.5895 40.5003
vt 40.5003 97.5895
f 4/4/1 1/1/1 5/5/1

v 84.7496 120 -39.0408
vt -39.0408 120
f 6/6/1 5/5/1 1/1/1

v 84.7496 97.5895 -16.4372
vt -16.4372 97.5895
f 5/5/1 6/6/1 7/7/1

v 84.7496 53.2145 -16.4372
vt -16.4372 53.2145
f 7/7/1 6/6/1 8/8/1

v 84.7496 0 -39.0408
vt -39.0408 0
f 9/9/1 8/8/1 6/6/1

f 9/9/1 4/4/1 8/8/1

f 2/2/1 4/4/1 9/9/1

vt -84.7496 -74.4592
vn 0 -1 -0
vt -84.7496 39.0408
v 94.7496 0 -39.0408
vt -94.7496 39.0408
v 94.7496 0 64.4592
vt -94.7496 -64.4592
v 607.187 0 64.4592
vt -607.187 -64.4592
v 751.329 0 64.4592
vt -751.329 -64.4592
v 751.329 0 74.4592
vt -751.329 -74.4592
f 2/10/2 9/11/2 10/12/2 11/13/2 12/14/2 13/15/2 14/16/2 

v 479.125 0 -315.041
vt -479.125 315.041
v 479.125 0 -325.041
vt -479.125 325.041
v 515 0 -325.041
vt -515 325.041
v 515 0 -520.041
vt -515 520.041
v 346.5 0 -520.041
vt -346.5 520.041
v 336.5 0 -520.041
vt -336.5 520.041
v 94.7496 0 -520.041
vt -94.7496 520.041
v 94.7496 0 -325.041
vt -94.7496 325.041
v 269.75 0 -325.041
vt -269.75 325.041
v 269.75 0 -315.041
vt -269.75 315.041
v 94.7496 0 -315.041
vt -94.7496 315.041
v 94.7496 0 -49.0408
vt -94.7496 49.0408
v 150.889 0 -49.0408
vt -150.889 49.0408
v 150.889 0 -39.0408
vt -150.889 39.0408
v 141.334 0 -39.0408
vt -141.334 39.0408
v 84.7496 0 -530.041
vt -84.7496 530.041
v 525 0 -530.041
vt -525 530.041
v 525 0 -49.0408
vt -525 49.0408
v 525 0 -39.0408
vt -525 39.0408
v 309.75 0 -39.0408
vt -309.75 39.0408
v 309.75 0 -49.0408
vt -309.75 49.0408
v 316.812 0 -49.0408
vt -316.812 49.0408
v 503.125 0 -49.0408
vt -503.125 49.0408
v 503.125 0 -85.0408
vt -503.125 85.0408
v 515 0 -85.0408
vt -515 85.0408
v 515 0 -133.041
vt -515 133.041
v 503.125 0 -133.041
vt -503.125 133.041
v 503.125 0 -169.041
vt -503.125 169.041
v 515 0 -169.041
vt -515 169.041
v 515 0 -315.041
vt -515 315.041
f 15/17/2 16/18/2 17/19/2 18/20/2 19/21/2 20/22/2 21/23/2 22/24/2 23/25/2 24/26/2 25/27/2 26/28/2 27/29/2 28/30/2 29/31/2 10/12/2 9/11/2 30/32/2 31/33/2 32/34/2 33/35/2 34/36/2 35/37/2 36/38/2 37/39/2 38/40/2 39/41/2 40/42/2 41/43/2 42/44/2 43/45/2 44/46/2 

v 439.125 0 -315.041
vt -439.125 315.041
f 15/17/2 45/47/2 16/18/2

f 42/44/2 45/47/2 15/17/2

v 316.812 0 -169.041
vt -316.812 169.041
f 46/48/2 45/47/2 42/44/2

v 309.75 0 -315.041
vt -309.75 315.041
f 46/48/2 47/49/2 45/47/2

f 35/37/2 47/49/2 46/48/2

v 309.75 0 -325.041
vt -309.75 325.041
f 35/37/2 48/50/2 47/49/2

v 269.75 0 -49.0408
vt -269.75 49.0408
f 48/50/2 35/37/2 49/51/2

vt -150.889 0
vn 0 0 -1
vt -94.7496 0
v 94.7496 120 -49.0408
vt -94.7496 120
v 515 120 -49.0408
vt -515 120
v 515 48 -49.0408
vt -515 48
v 503.125 48 -49.0408
vt -503.125 48
v 316.812 48 -49.0408
vt -316.812 48
vt -316.812 0
vt -309.75 0
vt -269.75 0
v 190.889 0 -49.0408
vt -190.889 0
v 190.889 4.3125 -49.0408
vt -190.889 4.3125
v 190.889 84 -49.0408
vt -190.889 84
v 150.889 84 -49.0408
vt -150.889 84
v 150.889 4.3125 -49.0408
vt -150.889 4.3125
f 27/52/3 26/53/3 50/54/3 51/55/3 52/56/3 53/57/3 54/58/3 36/59/3 35/60/3 49/61/3 55/62/3 56/63/3 57/64/3 58/65/3 59/66/3 

f 26/28/2 24/26/2 27/29/2

f 24/26/2 26/28/2 25/27/2

usemtl Sketchy_Siding_Straight
v 94.7496 50.9017 -124.156
vt 4.29352 2.1209
vn 1 0 -0
vt 1.69591 0
vt 10.8946 0
f 60/67/4 26/68/4 25/69/4

vt 1.69591 5
f 26/68/4 60/67/4 50/70/4

v 94.7496 95.4017 -124.156
vt 4.29352 3.97507
f 61/71/4 50/70/4 60/67/4

v 94.7496 120 -315.041
vt 10.8946 5
f 50/70/4 61/71/4 62/72/4

v 94.7496 95.4017 -218.718
vt 7.56365 3.97507
f 62/72/4 61/71/4 63/73/4

vt -3.2766 9.11327
vt -3.2766 5.17317
v 84.7496 95.4017 -124.156
vt -2.93078 5.17317
v 84.7496 95.4017 -218.718
vt -2.93078 9.11327
f 63/74/2 61/75/2 64/76/2 65/77/2 

vt -3.2766 3.97507
vt -3.2766 2.1209
v 84.7496 50.9017 -124.156
vt -2.93078 2.1209
vt -2.93078 3.97507
f 61/78/3 60/79/3 66/80/3 64/81/3 

vt 3.2766 5.17317
vn 0 1 -0
v 94.7496 50.9017 -218.718
vt 3.2766 9.11327
v 84.7496 50.9017 -218.718
vt 2.93078 9.11327
vt 2.93078 5.17317
f 60/82/5 67/83/5 68/84/5 66/85/5 

vt 7.56365 2.1209
f 60/67/4 25/69/4 67/86/4

f 67/86/4 25/69/4 63/73/4

f 62/72/4 63/73/4 25/69/4

vt 10.7117 0
vn 0 0 1
vt 15.1857 0
v 439.125 84 -315.041
vt 15.1857 3.5
v 479.125 84 -315.041
vt 16.5689 3.5
vt 16.5689 0
vt 17.8095 0
v 515 120 -315.041
vt 17.8095 5
vt 3.2766 5
vt 3.2766 0
vt 9.32839 0
v 269.75 84 -315.041
vt 9.32839 3.5
v 309.75 84 -315.041
vt 10.7117 3.5
f 47/87/6 45/88/6 69/89/6 70/90/6 15/91/6 44/92/6 71/93/6 62/94/6 25/95/6 24/96/6 72/97/6 73/98/6 

usemtl FrontColor
v 336.5 0 -325.041
vt -336.5 325.041
v 346.5 0 -325.041
vt -346.5 325.041
v 439.125 0 -325.041
vt -439.125 325.041
f 74/99/2 75/100/2 76/101/2 45/47/2 47/49/2 48/50/2 

v 346.5 0 -491.291
vt -346.5 491.291
f 74/99/2 77/102/2 75/100/2

v 336.5 0 -491.291
vt -336.5 491.291
f 74/99/2 78/103/2 77/102/2

f 74/99/2 20/22/2 78/103/2

f 48/50/2 20/22/2 74/99/2

f 49/51/2 20/22/2 48/50/2

f 24/26/2 20/22/2 49/51/2

f 23/25/2 20/22/2 24/26/2

f 22/24/2 20/22/2 23/25/2

f 20/22/2 22/24/2 21/23/2

usemtl Sketchy_Siding_Straight
vt 11.2404 0
vt 17.9839 0
v 94.7496 120 -520.041
vt 17.9839 5
v 94.7496 120 -325.041
vt 11.2404 5
f 22/104/4 21/105/4 79/106/4 80/107/4 

usemtl FrontColor
v 282.5 120 -520.041
vt -282.5 120
v 336.5 120 -520.041
vt -336.5 120
vt -336.5 0
f 81/108/3 82/109/3 20/110/3 21/53/3 79/54/3 

v 508.125 120 -520.041
vt 508.125 520.041
v 515 120 -520.041
vt 515 520.041
v 515 120 -515.291
vt 515 515.291
v 525 120 -515.291
vt 525 515.291
v 525 120 -530.041
vt 525 530.041
v 84.7496 120 -530.041
vt 84.7496 530.041
v 84.7496 120 -520.041
vt 84.7496 520.041
vt 94.7496 520.041
vt 282.5 520.041
vt 336.5 520.041
v 346.5 120 -520.041
vt 346.5 520.041
v 505.375 120 -520.041
vt 505.375 520.041
f 83/111/5 84/112/5 85/113/5 86/114/5 87/115/5 88/116/5 89/117/5 79/118/5 81/119/5 82/120/5 90/121/5 91/122/5 

vt -515 0
vt -346.5 0
vt -346.5 120
vt -505.375 120
vt -508.125 120
f 18/123/3 19/124/3 90/125/3 91/126/3 83/127/3 84/55/3 

f 18/20/2 77/102/2 19/21/2

f 77/102/2 18/20/2 75/100/2

f 75/100/2 18/20/2 76/101/2

f 76/101/2 18/20/2 45/47/2

f 45/47/2 18/20/2 16/18/2

f 16/18/2 18/20/2 17/19/2

usemtl Sketchy_Siding_Straight
vt -17.9839 0
vt -11.2404 0
v 515 120 -325.041
vt -11.2404 5
vt -17.8196 5
vt -17.9839 5
f 18/128/1 17/129/1 92/130/1 85/131/1 84/132/1 

usemtl FrontColor
vt -439.125 0
v 346.5 84 -325.041
vt -346.5 84
v 346.5 120 -325.041
vt -479.125 0
v 479.125 84 -325.041
vt -479.125 84
v 439.125 84 -325.041
vt -439.125 84
f 76/133/3 75/124/3 93/134/3 94/125/3 92/55/3 17/123/3 16/135/3 95/136/3 96/137/3 

vt 346.5 0
vt 346.5 84
v 336.5 84 -325.041
vt 336.5 84
vt 336.5 0
f 75/138/6 93/139/6 97/140/6 74/141/6 

vt 325.041 0
v 346.5 0 -451.291
vt 451.291 0
v 346.5 65.1875 -451.291
vt 451.291 65.1875
v 346.5 84 -451.291
vt 451.291 84
v 346.5 84 -491.291
vt 491.291 84
vt 491.291 0
vt 520.041 0
vt 520.041 120
vt 325.041 120
vt 325.041 84
f 75/142/4 98/143/4 99/144/4 100/145/4 101/146/4 77/147/4 19/148/4 90/149/4 94/150/4 93/151/4 

v 336.5 0 -451.291
vt -336.5 451.291
vt -346.5 451.291
f 74/99/2 102/152/2 98/153/2 75/100/2 

v 336.5 120 -325.041
vt -325.041 120
vt -520.041 120
vt -520.041 0
vt -491.291 0
v 336.5 84 -491.291
vt -491.291 84
v 336.5 84 -451.291
vt -451.291 84
v 336.5 65.1875 -451.291
vt -451.291 65.1875
vt -451.291 0
vt -325.041 0
vt -325.041 84
f 103/154/1 82/155/1 20/156/1 78/157/1 104/158/1 105/159/1 106/160/1 102/161/1 74/162/1 97/163/1 

vt 336.5 325.041
vt 346.5 325.041
f 82/120/5 103/164/5 94/165/5 90/121/5 

vt 94.7496 315.041
vt 515 315.041
vt 515 325.041
vt 94.7496 325.041
v 84.7496 120 -315.041
vt 84.7496 315.041
f 62/166/5 71/167/5 92/168/5 94/165/5 103/164/5 80/169/5 79/118/5 89/117/5 107/170/5 

v 515 120 -268.028
vt 515 268.028
vt 515 49.0408
vt 94.7496 49.0408
vt 84.7496 39.0408
v 94.7496 120 -39.0408
vt 94.7496 39.0408
v 751.329 120 -39.0408
vt 751.329 39.0408
v 751.329 120 -49.0408
vt 751.329 49.0408
v 525 120 -49.0408
vt 525 49.0408
f 108/171/5 51/172/5 50/173/5 62/166/5 107/170/5 6/174/5 109/175/5 110/176/5 111/177/5 112/178/5 86/114/5 85/113/5 92/168/5 71/167/5 

usemtl Sketchy_Siding_Straight
vt -10.8946 0
vt -5.84571 0
v 515 48 -169.041
vt -5.84571 2
v 515 48 -133.041
vt -4.60077 2
vt -4.60077 0
vt -2.94085 0
v 515 48 -85.0408
vt -2.94085 2
vt -1.69591 2
vt -1.69591 5
vt -9.26886 5
vt -10.8946 5
f 44/179/1 43/180/1 113/181/1 114/182/1 40/183/1 39/184/1 115/185/1 52/186/1 51/187/1 108/188/1 71/189/1 

usemtl FrontColor
f 42/44/2 44/46/2 43/45/2

f 42/44/2 15/17/2 44/46/2

vt 316.812 0
vt 503.125 0
vt 515 0
vt 515 48
v 316.812 48 -169.041
vt 316.812 48
f 46/190/6 42/191/6 43/192/6 113/193/6 116/194/6 

v 316.812 48 -133.041
vt -316.812 133.041
f 116/48/2 113/45/2 114/42/2 117/195/2 

vt -503.125 0
v 316.812 0 -133.041
f 117/58/3 114/56/3 40/123/3 41/196/3 118/59/3 

f 38/40/2 41/43/2 40/42/2

v 316.812 0 -85.0408
vt -316.812 85.0408
f 119/197/2 41/43/2 38/40/2

f 41/43/2 119/197/2 118/195/2

f 36/38/2 118/195/2 119/197/2

f 36/38/2 46/48/2 118/195/2

f 46/48/2 36/38/2 35/37/2

vt 133.041 0
vt 169.041 0
vt 169.041 48
vt 133.041 48
f 118/198/4 46/199/4 116/200/4 117/201/4 

vt 49.0408 0
vt 85.0408 0
v 316.812 48 -85.0408
vt 85.0408 48
vt 49.0408 48
f 36/202/4 119/203/4 120/204/4 54/205/4 

f 37/39/2 36/38/2 119/197/2 38/40/2 

f 37/196/3 36/59/3 54/58/3 53/57/3 

vt -515 49.0408
f 120/197/2 115/41/2 52/206/2 53/39/2 54/38/2 

f 119/190/6 38/191/6 39/192/6 115/193/6 120/194/6 

f 38/40/2 40/42/2 39/41/2

vt -124.156 95.4017
vt -315.041 120
f 64/207/1 6/6/1 107/208/1

f 9/9/1 6/6/1 64/207/1

vt -124.156 50.9017
f 66/209/1 9/9/1 64/207/1

vt -530.041 0
f 9/9/1 66/209/1 30/210/1

vt -218.718 50.9017
f 30/210/1 66/209/1 68/211/1

f 30/210/1 68/211/1 107/208/1

vt -218.718 95.4017
f 65/212/1 107/208/1 68/211/1

f 64/207/1 107/208/1 65/212/1

usemtl Sketchy_Siding_Straight
vt 3.2766 2.1209
vt 3.2766 3.97507
vt 2.93078 3.97507
vt 2.93078 2.1209
f 67/213/6 63/214/6 65/215/6 68/216/6 

usemtl FrontColor
f 30/210/1 107/208/1 89/155/1

vt -530.041 120
f 30/210/1 89/155/1 88/217/1

vt -525 0
vt -84.7496 0
vt -84.7496 120
vt -525 120
f 31/218/3 30/219/3 88/220/3 87/221/3 

vt 530.041 0
vt 530.041 120
vt 515.291 120
vt 49.0408 120
f 32/202/4 31/222/4 87/223/4 86/224/4 112/225/4 

vt -751.329 120
v 751.329 0 -49.0408
vt -751.329 0
f 112/221/3 111/226/3 121/227/3 32/218/3 

vt 39.0408 120
v 751.329 0 -39.0408
vt 39.0408 0
f 110/228/4 122/229/4 121/202/4 111/225/4 

usemtl Sketchy_Siding_Straight
v 190.889 4.3125 -39.0408
vt 6.60125 0.179688
v 269.75 4.3125 -39.0408
vt 9.32839 0.179688
v 309.75 4.3125 -39.0408
vt 10.7117 0.179688
v 525 4.3125 -39.0408
vt 18.1554 0.179688
v 607.187 4.3125 -39.0408
vt 20.9975 0.179688
v 607.187 0 -39.0408
vt 20.9975 0
vt 25.9822 0
vt 25.9822 5
v 94.7496 4.3125 -39.0408
vt 3.2766 0.179688
v 141.334 4.3125 -39.0408
vt 4.88756 0.179688
v 150.889 4.3125 -39.0408
vt 5.21798 0.179688
v 150.889 84 -39.0408
vt 5.21798 3.5
v 190.889 84 -39.0408
vt 6.60125 3.5
f 123/230/6 124/231/6 125/232/6 126/233/6 127/234/6 128/235/6 122/236/6 110/237/6 109/94/6 129/238/6 130/239/6 131/240/6 132/241/6 133/242/6 

usemtl FrontColor
vt -269.75 39.0408
vt -607.187 39.0408
v 607.187 4.3125 64.4592
v 94.7496 4.3125 64.4592
vt -190.889 49.0408
vt -190.889 39.0408
f 124/243/2 125/36/2 126/35/2 127/244/2 134/14/2 135/13/2 129/12/2 130/31/2 131/30/2 59/29/2 56/245/2 123/246/2 

v 269.75 0 -39.0408
vt 269.75 0
vt 309.75 0
vt 309.75 4.3125
vt 269.75 4.3125
f 136/247/6 34/248/6 125/249/6 124/250/6 

f 34/36/2 136/243/2 49/51/2 35/37/2 

v 190.889 0 -39.0408
f 137/246/2 55/245/2 49/51/2 136/243/2 

vt -49.0408 0
vt -39.0408 4.3125
vt -49.0408 4.3125
f 55/251/1 137/9/1 123/252/1 56/253/1 

vt 190.889 0
vt 190.889 4.3125
f 137/254/6 136/247/6 124/250/6 123/255/6 

usemtl Sketchy_Siding_Straight
vt -1.3501 0.179688
vt -1.3501 3.5
vt -1.69591 3.5
vt -1.69591 0.179688
f 123/256/1 133/257/1 57/258/1 56/259/1 

vt -6.60125 1.6267
vt -5.21798 1.6267
vt -5.21798 2.04337
vt -6.60125 2.04337
f 133/260/2 132/261/2 58/262/2 57/263/2 

vt 1.3501 3.5
vt 1.3501 0.179688
vt 1.69591 0.179688
vt 1.69591 3.5
f 132/264/4 131/265/4 59/266/4 58/267/4 

usemtl FrontColor
vt 49.0408 4.3125
vt 39.0408 4.3125
f 28/229/4 27/202/4 59/268/4 131/269/4 

vt 150.889 0
vt 150.889 4.3125
f 27/270/6 55/254/6 56/255/6 59/271/6 

f 27/29/2 24/26/2 55/245/2

f 55/245/2 24/26/2 49/51/2

vt 141.334 0
vt 141.334 4.3125
f 29/272/6 28/270/6 131/271/6 130/273/6 

vt 94.7496 0
vt 94.7496 4.3125
f 10/274/6 29/272/6 130/273/6 129/275/6 

vt 64.4592 0
vt 64.4592 4.3125
f 10/9/1 11/276/1 135/277/1 129/252/1 

vt 607.187 0
vt 607.187 4.3125
f 11/274/6 12/278/6 134/279/6 135/275/6 

v 94.7496 120 64.4592
vt 94.7496 120
vt 751.329 0
v 751.329 120 64.4592
vt 751.329 120
f 138/280/6 135/275/6 134/279/6 12/278/6 13/281/6 139/282/6 

v 94.7496 97.5895 40.5003
f 138/1/1 140/5/1 135/277/1

f 140/5/1 138/1/1 109/6/1

vt -84.7496 -64.4592
f 1/283/2 6/11/2 109/12/2 138/13/2 

v 751.329 120 74.4592
f 3/10/2 1/283/2 138/13/2 139/15/2 141/16/2 

f 13/276/1 14/2/1 141/3/1 139/1/1 

f 14/227/3 2/219/3 3/220/3 141/226/3 

v 94.7496 97.5895 -16.4372
f 140/5/1 109/6/1 142/7/1

v 94.7496 53.2145 -16.4372
f 142/7/1 109/6/1 143/8/1

f 129/252/1 143/8/1 109/6/1

v 94.7496 53.2145 40.5003
f 129/252/1 144/4/1 143/8/1

f 135/277/1 144/4/1 129/252/1

f 144/4/1 135/277/1 140/5/1

vt 84.7496 97.5895
vt 84.7496 53.2145
vt 94.7496 53.2145
vt 94.7496 97.5895
f 5/284/6 4/285/6 144/286/6 140/287/6 

vt -84.7496 -40.5003
vt -84.7496 16.4372
vt -94.7496 16.4372
vt -94.7496 -40.5003
f 4/288/2 8/289/2 143/290/2 144/291/2 

vt -84.7496 53.2145
vt -84.7496 97.5895
vt -94.7496 97.5895
vt -94.7496 53.2145
f 8/292/3 7/293/3 142/294/3 143/295/3 

vt 84.7496 16.4372
vt 84.7496 -40.5003
vt 94.7496 -40.5003
vt 94.7496 16.4372
f 7/296/5 5/297/5 140/298/5 142/299/5 

f 128/9/1 12/276/1 134/277/1 127/252/1 

vt -751.329 39.0408
f 13/15/2 12/14/2 128/244/2 122/300/2 

vt 525 39.0408
vt 607.187 39.0408
f 32/178/5 33/301/5 128/302/5 122/176/5 121/177/5 

usemtl Sketchy_Siding_Straight
vt 18.1554 0
f 33/303/6 128/235/6 127/234/6 126/233/6 

usemtl FrontColor
vt 525 0
vt 525 4.3125
f 34/248/6 33/304/6 126/305/6 125/249/6 

vt -336.5 84
f 103/109/3 94/125/3 93/134/3 97/306/3 

vt 336.5 120
v 269.75 84 -325.041
vt 269.75 84
v 309.75 84 -325.041
vt 309.75 84
f 74/141/6 97/140/6 103/307/6 80/280/6 22/274/6 23/247/6 145/308/6 146/309/6 48/248/6 

vt 315.041 84
vt 315.041 0
f 72/310/4 24/311/4 23/142/4 145/151/4 

f 73/49/2 72/26/2 145/25/2 146/50/2 

vt -315.041 0
vt -315.041 84
f 47/312/1 73/313/1 146/163/1 48/162/1 

f 19/124/3 20/110/3 82/109/3 90/125/3 

f 78/103/2 20/22/2 19/21/2 77/102/2 

f 77/138/6 101/139/6 104/140/6 78/141/6 

f 101/102/2 100/153/2 105/152/2 104/103/2 

vt -346.5 65.1875
vt -336.5 65.1875
f 100/134/3 99/314/3 106/315/3 105/306/3 

f 99/314/3 98/124/3 102/110/3 106/315/3 

usemtl Sketchy_Siding_Straight
vt -10.8946 3.5
vt -11.2404 3.5
f 15/179/1 70/316/1 95/317/1 16/129/1 

vt -16.5689 13.1267
vt -15.1857 13.1267
vt -15.1857 13.5434
vt -16.5689 13.5434
f 70/318/2 69/319/2 96/320/2 95/321/2 

vt 10.8946 3.5
vt 11.2404 3.5
f 69/322/4 45/69/4 76/104/4 96/323/4 

